<?xml version="1.0" encoding="utf-8"?>
<!-- Generator: Adobe Illustrator 25.2.1, SVG Export Plug-In . SVG Version: 6.00 Build 0)  -->
<svg version="1.1" id="Layer_1" xmlns="http://www.w3.org/2000/svg" xmlns:xlink="http://www.w3.org/1999/xlink" x="0px" y="0px"
	 viewBox="0 0 2516.4 1080" style="enable-background:new 0 0 2516.4 1080;" xml:space="preserve">
<style type="text/css">
	.st0{fill:#815AF2;}
	.st1{fill:#3E2154;}
	.st2{fill:#F1EFF3;}
	.st3{fill:#FFFFFF;}
</style>
<rect class="st0" width="2516.4" height="1080"/>
<path class="st2" d="M98.52,503.79c4.55-93.92,44.22-168.17,128.3-212.81c82.73-43.92,165.23-37.43,243.36,14.15
	c11.04,7.29,30.84,13.14,24.74,31.58c-5.16,15.61-20.29,24.23-37.57,26.41c-23.15,2.91-44.19-2.44-66.22-10.64
	c-82.38-30.68-173.85,11.19-204.65,91.53c-31.36,81.79,9.04,180.19,87.4,212.89c81.5,34.01,174.99-4.14,210.99-86.86
	c9.69-22.27,16.3-46.29,10.79-70.57c-5.47-24.08-19.24-33.33-38.61-11.16c-32.59,37.31-65.28,74.65-95.79,113.65
	c-15.04,19.23-25.42,24.08-42.75,3.15c-29.05-35.09-59.21-69.33-90.17-102.75c-18.54-20.02-9.82-30.76,10.45-37.31
	c14.36-4.64,27.94-5.25,40.46-2.19c17.73,4.34,28.54,15.06,39.22,25.36c10.8,10.42,17.88,20.68,22.18,27.79
	c6.56-14.13,17.15-33.61,33.88-54.08c12.24-14.97,22.92-24.56,25.57-26.9c21-18.61,42.16-37.38,72.73-39.52
	c13.7-0.96,28.09,1.42,43.13,7.81c44.83,19.07,58.89,60.28,59.33,105.82c1.1,114.98-91.34,220.14-206.81,236.71
	C257.29,761.81,143,688.3,110.31,579.34C102.97,554.91,96.4,530.13,98.52,503.79z"/>
<g>
	<path class="st3" d="M832.5,551.4c0,10.32-1.17,20.04-3.49,29.14c-2.33,9.11-6.38,17.05-12.14,23.83
		c-5.77,6.78-13.56,12.14-23.38,16.09c-9.82,3.95-22.21,5.92-37.19,5.92c-13.76,0-25.6-1.67-35.52-5.01
		c-9.92-3.34-18.11-7.23-24.59-11.69l15.79-36.73c5.87,3.44,12.14,6.48,18.82,9.11c6.68,2.63,13.96,3.95,21.86,3.95
		c11.54,0,19.83-2.83,24.89-8.5c5.06-5.66,7.59-15.18,7.59-28.54V411.76h47.36V551.4z"/>
	<path class="st3" d="M932.37,458.2c13.36,0,24.48,1.52,33.39,4.55c8.9,3.04,16.04,7.39,21.4,13.05
		c5.36,5.67,9.16,12.55,11.38,20.64c2.22,8.1,3.34,17.1,3.34,27.02v94.11c-6.48,1.42-15.48,3.09-27.02,5.01
		c-11.54,1.92-25.5,2.88-41.89,2.88c-10.32,0-19.69-0.91-28.08-2.73c-8.4-1.82-15.63-4.81-21.71-8.96
		c-6.07-4.15-10.73-9.56-13.96-16.24c-3.24-6.68-4.86-14.88-4.86-24.59c0-9.31,1.87-17.2,5.62-23.68
		c3.74-6.47,8.75-11.63,15.03-15.48c6.27-3.84,13.46-6.63,21.55-8.35c8.09-1.72,16.49-2.58,25.2-2.58c5.87,0,11.08,0.26,15.63,0.76
		c4.55,0.51,8.24,1.17,11.08,1.97v-4.25c0-7.69-2.33-13.86-6.98-18.52c-4.66-4.65-12.75-6.98-24.29-6.98
		c-7.69,0-15.28,0.56-22.77,1.67c-7.49,1.12-13.96,2.69-19.43,4.71l-5.77-36.43c2.63-0.81,5.92-1.67,9.87-2.58
		c3.95-0.91,8.24-1.72,12.9-2.43c4.65-0.71,9.56-1.31,14.72-1.82C921.9,458.46,927.1,458.2,932.37,458.2z M936.01,590.56
		c4.45,0,8.7-0.1,12.75-0.3c4.05-0.2,7.29-0.5,9.71-0.91v-34.3c-1.82-0.4-4.55-0.81-8.2-1.21c-3.64-0.4-6.98-0.61-10.02-0.61
		c-4.25,0-8.25,0.26-11.99,0.76c-3.75,0.51-7.03,1.47-9.87,2.88c-2.84,1.42-5.06,3.34-6.68,5.77c-1.62,2.43-2.43,5.46-2.43,9.11
		c0,7.09,2.38,11.99,7.13,14.72C921.18,589.19,927.71,590.56,936.01,590.56z"/>
	<path class="st3" d="M1130.6,537.43c0-14.57-1.87-24.89-5.62-30.96c-3.75-6.07-10.17-9.11-19.28-9.11c-2.84,0-5.77,0.15-8.8,0.46
		c-3.04,0.3-5.97,0.66-8.8,1.06v123.25h-45.23V467.92c3.84-1.01,8.35-2.07,13.51-3.19c5.16-1.11,10.62-2.12,16.39-3.04
		c5.77-0.91,11.69-1.62,17.76-2.12c6.07-0.5,12.04-0.76,17.91-0.76c11.54,0,20.89,1.47,28.08,4.4c7.18,2.94,13.1,6.43,17.76,10.47
		c6.47-4.65,13.91-8.3,22.31-10.93c8.4-2.63,16.14-3.95,23.22-3.95c12.75,0,23.22,1.77,31.42,5.31c8.2,3.54,14.72,8.55,19.58,15.03
		c4.86,6.48,8.2,14.17,10.02,23.07c1.82,8.91,2.73,18.82,2.73,29.75v90.16h-45.23v-84.7c0-14.57-1.87-24.89-5.62-30.96
		c-3.75-6.07-10.17-9.11-19.28-9.11c-2.43,0-5.82,0.61-10.17,1.82c-4.35,1.21-7.95,2.73-10.78,4.55c1.41,4.66,2.32,9.56,2.73,14.72
		c0.4,5.16,0.61,10.68,0.61,16.54v87.12h-45.23V537.43z"/>
	<path class="st3" d="M1354.03,416.31c0,8.3-2.69,14.83-8.04,19.58c-5.37,4.76-11.69,7.13-18.97,7.13c-7.29,0-13.61-2.38-18.97-7.13
		c-5.37-4.75-8.04-11.28-8.04-19.58c0-8.3,2.68-14.82,8.04-19.58c5.36-4.75,11.69-7.13,18.97-7.13c7.29,0,13.61,2.38,18.97,7.13
		C1351.34,401.49,1354.03,408.01,1354.03,416.31z M1349.78,622.13h-45.23V462.45h45.23V622.13z"/>
	<path class="st3" d="M1441.75,416.31c0,8.3-2.69,14.83-8.04,19.58c-5.37,4.76-11.69,7.13-18.97,7.13c-7.29,0-13.61-2.38-18.97-7.13
		c-5.37-4.75-8.04-11.28-8.04-19.58c0-8.3,2.68-14.82,8.04-19.58c5.36-4.75,11.69-7.13,18.97-7.13c7.29,0,13.61,2.38,18.97,7.13
		C1439.07,401.49,1441.75,408.01,1441.75,416.31z M1437.5,622.13h-45.23V462.45h45.23V622.13z"/>
	<path class="st3" d="M1578.96,626.38c-34.2,0-60.26-9.51-78.17-28.54c-17.91-19.02-26.87-46.04-26.87-81.05
		c0-17.4,2.73-32.94,8.2-46.6c5.46-13.66,12.95-25.2,22.46-34.61c9.51-9.41,20.84-16.54,34-21.4c13.15-4.86,27.42-7.29,42.8-7.29
		c8.9,0,17,0.66,24.29,1.97c7.29,1.32,13.66,2.84,19.12,4.55c5.46,1.72,10.02,3.49,13.66,5.31c3.64,1.82,6.27,3.24,7.89,4.25
		l-13.66,38.25c-6.48-3.44-14.02-6.38-22.62-8.8c-8.6-2.43-18.37-3.64-29.29-3.64c-7.29,0-14.42,1.21-21.4,3.64
		s-13.16,6.33-18.52,11.69c-5.37,5.37-9.67,12.29-12.9,20.79c-3.24,8.5-4.86,18.82-4.86,30.96c0,9.71,1.06,18.77,3.19,27.17
		c2.12,8.4,5.56,15.63,10.32,21.71c4.75,6.07,10.98,10.88,18.67,14.42c7.69,3.54,17,5.31,27.93,5.31c6.88,0,13.05-0.4,18.52-1.21
		c5.46-0.81,10.32-1.77,14.57-2.88c4.25-1.11,7.99-2.38,11.23-3.79c3.24-1.41,6.17-2.73,8.8-3.95l13.05,37.95
		c-6.68,4.05-16.09,7.69-28.23,10.93C1609.02,624.76,1594.95,626.38,1578.96,626.38z"/>
	<path class="st3" d="M1676.71,622.13V393.85l45.23-7.29v76.5c3.04-1.01,6.93-1.97,11.69-2.88c4.75-0.91,9.36-1.37,13.81-1.37
		c12.95,0,23.73,1.77,32.33,5.31c8.6,3.54,15.48,8.55,20.64,15.03c5.16,6.48,8.8,14.17,10.93,23.07c2.12,8.91,3.19,18.82,3.19,29.75
		v90.16h-45.23v-84.7c0-14.57-1.87-24.89-5.62-30.96c-3.75-6.07-10.68-9.11-20.79-9.11c-4.05,0-7.85,0.36-11.38,1.06
		c-3.54,0.71-6.73,1.47-9.56,2.28v121.43H1676.71z"/>
	<path class="st3" d="M1847.92,543.5c0-14.16,2.17-26.56,6.53-37.19c4.35-10.62,10.07-19.48,17.15-26.56
		c7.08-7.08,15.23-12.45,24.44-16.09c9.21-3.64,18.67-5.46,28.38-5.46c22.66,0,40.57,6.93,53.73,20.79
		c13.15,13.87,19.73,34.26,19.73,61.17c0,2.63-0.1,5.52-0.3,8.65c-0.2,3.14-0.41,5.92-0.61,8.35h-102.61
		c1.01,9.31,5.36,16.7,13.05,22.16c7.69,5.46,18.01,8.2,30.96,8.2c8.3,0,16.44-0.76,24.44-2.28c7.99-1.52,14.52-3.39,19.58-5.62
		l6.07,36.73c-2.43,1.21-5.67,2.43-9.71,3.64c-4.05,1.21-8.55,2.28-13.51,3.19c-4.96,0.91-10.27,1.67-15.94,2.28
		c-5.67,0.61-11.34,0.91-17,0.91c-14.37,0-26.87-2.12-37.49-6.38s-19.43-10.07-26.41-17.46c-6.98-7.39-12.14-16.14-15.48-26.26
		C1849.59,566.17,1847.92,555.25,1847.92,543.5z M1954.17,526.2c-0.2-3.84-0.86-7.59-1.97-11.23c-1.12-3.64-2.84-6.88-5.16-9.71
		c-2.33-2.83-5.26-5.16-8.8-6.98c-3.54-1.82-7.94-2.73-13.21-2.73c-5.06,0-9.41,0.86-13.05,2.58c-3.64,1.72-6.68,4-9.11,6.83
		c-2.43,2.84-4.3,6.12-5.62,9.87c-1.32,3.75-2.28,7.54-2.88,11.38H1954.17z"/>
	<path class="st3" d="M2025.21,542.29c0-11.54,1.87-22.41,5.62-32.63c3.74-10.22,9.16-19.12,16.24-26.71
		c7.08-7.59,15.68-13.61,25.8-18.06c10.12-4.45,21.65-6.68,34.61-6.68c8.5,0,16.29,0.76,23.38,2.28c7.08,1.52,13.96,3.7,20.64,6.53
		l-9.41,36.12c-4.25-1.62-8.91-3.04-13.96-4.25c-5.06-1.21-10.73-1.82-17-1.82c-13.36,0-23.33,4.15-29.9,12.45
		c-6.58,8.3-9.87,19.23-9.87,32.79c0,14.37,3.08,25.5,9.26,33.39c6.17,7.89,16.95,11.84,32.33,11.84c5.46,0,11.33-0.5,17.61-1.52
		c6.27-1.01,12.04-2.63,17.3-4.86l6.38,37.04c-5.26,2.23-11.84,4.15-19.73,5.77c-7.89,1.62-16.6,2.43-26.11,2.43
		c-14.57,0-27.12-2.18-37.64-6.53c-10.53-4.35-19.18-10.27-25.96-17.76c-6.78-7.48-11.74-16.34-14.88-26.56
		C2026.77,565.31,2025.21,554.23,2025.21,542.29z"/>
	<path class="st3" d="M2229.81,519.79c4.45-4.83,9.04-9.86,13.8-15.09c4.75-5.23,9.35-10.41,13.8-15.54s8.64-10.01,12.58-14.64
		c3.94-4.62,7.33-8.65,10.16-12.07h53.78c-10.73,12.32-21.2,24.09-31.42,35.29c-10.22,11.21-21.4,22.77-33.54,34.68
		c6.07,5.47,12.34,12.01,18.82,19.61c6.47,7.6,12.75,15.46,18.82,23.57c6.07,8.11,11.64,16.22,16.7,24.32
		c5.06,8.11,9.31,15.51,12.75,22.2h-52.01c-3.24-5.27-6.92-11.1-11.06-17.5c-4.14-6.39-8.53-12.78-13.18-19.17
		c-4.65-6.39-9.54-12.53-14.69-18.41c-5.15-5.88-10.25-10.85-15.3-14.91v69.99h-45.23V393.85l45.23-7.29V519.79z"/>
</g>
</svg>
